<svg xmlns="http://www.w3.org/2000/svg" viewBox="0 0 48 32" fill="none">
  <rect width="48" height="32" rx="4" fill="#1A1F71"/>
  <path d="M19.5 21H17L14.5 13.5C14.38 13.1 14.15 12.75 13.8 12.58C12.94 12.15 12 11.83 11 11.67V11.33H15.5C16.1 11.33 16.6 11.75 16.7 12.33L17.7 17.67L20 11.33H22.5L19.5 21ZM23.75 21H21.35L23.35 11.33H25.75L23.75 21ZM30.25 14C30.35 13.42 30.85 13.08 31.4 13.08C32.25 13 33.2 13.17 34 13.58L34.5 11.58C33.7 11.25 32.85 11.08 32.05 11.08C29.7 11.08 28 12.42 28 14.17C28 15.5 29.15 16.17 30 16.58C30.85 17 31.15 17.25 31.1 17.58C31.1 18.08 30.55 18.33 30.05 18.33C29.15 18.33 28.25 18.08 27.45 17.67L26.95 19.67C27.85 20.08 28.8 20.25 29.7 20.25C32.3 20.33 33.9 19 33.9 17.08C33.9 14.67 30.25 14.5 30.25 14ZM39 21L37 11.33H35C34.5 11.33 34 11.67 33.8 12.17L30.3 21H32.8L33.3 19.58H36.35L36.65 21H39ZM34 17.58L35.25 13.92L35.95 17.58H34Z" fill="white"/>
</svg>
